<svg viewBox="0 0 32 32">
  <path
      d="M 19.130291,29.1479 2.0790634,12.10564 1.959824,11.986463 l 0,-0.238353 1.1923936,-8.3423649 0,-0.3575299 0.3577181,0 8.3467553,-1.1917664 0.238478,0 0.119239,0.1191766 16.931989,17.1614366 0.238478,0.238353 -0.238478,0.238353 L 19.607248,29.1479 19.36877,29.386253 19.130291,29.1479 Z M 12.452887,0.54550574 1.959824,1.9756254 0.52895183,12.46317 19.36877,31.293079 31.292705,19.375415 12.452887,0.54550574 Z"
      style="stroke-width:1;"/>
  <rect
      x="1.3910731"
      y="17.339901"
      transform="matrix(0.70348355,-0.71071154,0.71108151,0.70310958,0,0)"
      width="1.3112909"
      height="13.470608"
      style="stroke-width:1;"/>
  <rect
      x="-3.1396554"
      y="17.372503"
      transform="matrix(0.70348355,-0.71071154,0.71108151,0.70310958,0,0)"
      width="1.3112909"
      height="13.470608"
      style="stroke-width:1;"/>
  <g
      transform="matrix(1.1923936,0,0,1.1917664,15.910828,15.919292)"
      style="stroke-width:1.04044676;">
    <path
        d="m -5.7,-7.3 c -0.7,0 -1.2,0.5 -1.2,1.2 0,0.7 0.5,1.2 1.2,1.2 0.7,0 1.2,-0.5 1.2,-1.2 0,-0.6 -0.6,-1.2 -1.2,-1.2"
        style="stroke-width:1.04044676;"/>
  </g>
</svg>