<svg viewBox="0 0 32 32">
  <g
      transform="matrix(0.18149883,0,0,0.18735,16,16)"
      style="fill:none;stroke-width:5.4229579;stroke-miterlimit:4;stroke-dasharray:none;">
    <g
        style="fill:none;stroke-width:5.4229579;stroke-miterlimit:4;stroke-dasharray:none;">
      <path
          d="m 46.9,58.7 -120.7,0 c -6.4,0 -11.6,-5.4 -11.6,-12.1 l 0,-93.2 c 0,-6.7 5.2,-12.1 11.6,-12.1 l 69.8,0 c 8.7,0 13.3,4.7 17,9 2.9,3.4 8.9,10.4 11.2,13.1 l 22.6,0 c 6.4,0 11.6,5.4 11.6,12.1 0,1.7 -1.3,3 -3,3 -1.7,0 -3,-1.3 -3,-3 0,-3.4 -2.5,-6.1 -5.6,-6.1 l -24,0 c -0.9,0 -1.7,-0.4 -2.3,-1 -0.1,-0.1 -8.6,-10 -12.1,-14.2 -3.7,-4.5 -6.8,-6.9 -12.4,-6.9 l -69.8,0 c -3.1,0 -5.6,2.7 -5.6,6.1 l 0,93.2 c 0,3.4 2.5,6.1 5.6,6.1 l 120.7,0 c 1.7,0 3,1.3 3,3 0,1.7 -1.4,3 -3,3 z"
          style="stroke-width:5.4229579;stroke-miterlimit:4;stroke-dasharray:none;"/>
    </g>
    <g
        style="stroke-width:5.4229579;stroke-miterlimit:4;stroke-dasharray:none;">
      <path
          class="st0"
          d="m 47,58.7 c 0,0 -0.1,0 -0.1,0 l -120.6,0 c -6.4,0 -11.6,-4.8 -11.6,-10.7 0,-0.4 0.1,-0.8 0.3,-1.2 1,-2.2 24.2,-54.9 27,-59.7 0.3,-0.5 0.6,-1 0.9,-1.5 2.3,-3.9 4.4,-7.6 10.3,-7.6 l 120.6,-0.6 c 6.4,0 11.6,4.8 11.6,10.7 0,0.4 -0.1,0.8 -0.2,1.2 -2.2,5 -21.1,50.5 -24.1,55.4 -0.6,0.9 -1.1,1.9 -1.7,3 -2.7,4.9 -5.9,11 -12.4,11 z M -79.4,48.5 c 0.3,2.3 2.7,4.2 5.6,4.2 l 120.7,0 c 2.7,0 4.6,-3.2 7.1,-7.8 0.6,-1.1 1.2,-2.3 1.9,-3.4 2.1,-3.3 15.1,-33.9 23.5,-54 -0.3,-2.3 -2.7,-4.2 -5.6,-4.2 L -46.9,-16 c -2.3,0 -2.9,0.7 -5.1,4.6 -0.3,0.5 -0.6,1 -0.9,1.6 -2.2,3.7 -19.6,42.7 -26.5,58.3 z"
          id="path13"
          style="stroke-width:5.4229579;stroke-miterlimit:4;stroke-dasharray:none;"/>
    </g>
  </g>
</svg>