<svg viewBox="0 0 16 16">
  <g>
    <g
       transform="matrix(0.5,0,0,0.5,0.2868705,-507.5876)">
      <path
         d="m 10.426259,1027.4783 0.04133,16.5055 4.154475,-5.8448 6.951674,1.2624 z"
         style="fill:none;stroke-width:2;stroke-linecap:butt;stroke-linejoin:miter;stroke-miterlimit:4;stroke-dasharray:none;" />
      <path
         d="m 14.622059,1038.139 2.797199,7.1071"
         style="fill:none;stroke-width:2;stroke-linecap:butt;stroke-linejoin:miter;stroke-miterlimit:4;stroke-dasharray:none;" />
    </g>
    <path
       style="fill:none;stroke-width:1;stroke-linecap:butt;stroke-linejoin:miter;stroke-miterlimit:4;stroke-dasharray:none;"
       d="m 4,2.5004 -2.5,0 0,2.5"
    />
    <path
       style="fill:none;stroke-width:1;stroke-linecap:butt;stroke-linejoin:miter;stroke-miterlimit:4;stroke-dasharray:none;"
       d="m 1.5,12.0004 0,2.5 2.5,0"
    />
    <path
       style="fill:none;stroke-width:1;stroke-linecap:butt;stroke-linejoin:miter;stroke-miterlimit:4;stroke-dasharray:none;"
       d="m 12,2.5004 2.5,0 0,2.5"
    />
    <path
       style="fill:none;stroke-width:1;stroke-linecap:butt;stroke-linejoin:miter;stroke-miterlimit:4;stroke-dasharray:none;"
       d="m 14.5,12.0004 0,2.5 -2.5,0"
    />
    <path
       style="fill:none;stroke-width:1px;stroke-linecap:butt;stroke-linejoin:miter;"
       d="m 5,2.5004 2,0"
    />
    <path
       style="fill:none;stroke-width:1px;stroke-linecap:butt;stroke-linejoin:miter;"
       d="m 9.0267857,2.5406 2.0000003,0"
    />
    <path
       style="fill:none;stroke-width:1px;stroke-linecap:butt;stroke-linejoin:miter;"
       d="m 14.5,6.0004 0,2"
    />
    <path
       style="fill:none;stroke-width:1px;stroke-linecap:butt;stroke-linejoin:miter;"
       d="m 1.5,6.0004 0,2"
    />
    <path
       style="fill:none;stroke-width:1px;stroke-linecap:butt;stroke-linejoin:miter;"
       d="m 1.5,9.0004 0,2"
    />
    <path
       style="fill:none;stroke-width:1px;stroke-linecap:butt;stroke-linejoin:miter;"
       d="m 14.5,9.0004 0,2"
    />
  </g>
</svg>
