<svg viewBox="0 0 32 32">
  <path
      d="M 0.64437419,15.248326 8.22e-5,16 0.64437419,16.751674 C 0.96652019,17.07382 7.6242042,23.946268 16,23.946268 c 8.375796,0 15.03348,-6.97983 15.355626,-7.194594 L 31.999918,16 31.355626,15.248326 C 31.03348,14.92618 24.375796,8.0537323 16,8.0537323 7.6242042,8.0537323 0.96652019,14.92618 0.64437419,15.248326 z M 16.214764,13.637596 c 1.288584,0.107382 2.14764,1.181202 2.040258,2.469786 -0.107382,1.181202 -1.181202,2.14764 -2.362404,2.040258 -1.288584,-0.107382 -2.14764,-1.181202 -2.040258,-2.469786 0,-1.181202 1.181202,-2.14764 2.362404,-2.040258 z m 2.899314,7.838886 c 1.718112,-0.966438 3.006696,-2.791932 3.114078,-4.939572 0.107382,-1.07382 -0.107382,-2.14764 -0.53691,-3.114078 -0.214764,0.322146 -0.644292,0.53691 -1.07382,0.53691 -0.644292,0 -1.181202,-0.644292 -1.07382,-1.288584 0,-0.53691 0.429528,-0.966438 0.966438,-1.07382 -0.429528,-0.429528 -0.966438,-0.751674 -1.503348,-1.07382 4.617426,1.07382 8.375796,4.080516 9.986526,5.476482 -1.503348,1.395966 -5.261718,4.402662 -9.879144,5.476482 z M 12.885922,10.523518 C 11.16781,11.489956 9.8792262,13.31545 9.7718442,15.46309 9.5570802,17.932876 10.845664,20.29528 12.993304,21.476482 8.3758782,20.402662 4.6175082,17.395966 3.1141602,16 c 1.395966,-1.395966 5.154336,-4.402662 9.7717618,-5.476482 z"
      style="stroke:none;"/>
</svg>